<svg width="121" height="18" viewBox="0 0 121 18" fill="none" xmlns="http://www.w3.org/2000/svg">
<path d="M11.7287 5C11.2429 2.31534 9.09517 0.730113 6.46165 0.730113C3.11222 0.730113 0.683239 3.3125 0.683239 7.45455C0.683239 11.5966 3.11222 14.179 6.46165 14.179C9.09517 14.179 11.2429 12.5938 11.7287 9.90909H10.1435C9.75994 11.7244 8.20028 12.696 6.46165 12.696C4.08381 12.696 2.21733 10.8551 2.21733 7.45455C2.21733 4.05398 4.08381 2.21307 6.46165 2.21307C8.20028 2.21307 9.75994 3.18466 10.1435 5H11.7287ZM18.0744 14.2045C20.7335 14.2045 22.5233 12.1847 22.5233 9.14205C22.5233 6.07386 20.7335 4.05398 18.0744 4.05398C15.4153 4.05398 13.6255 6.07386 13.6255 9.14205C13.6255 12.1847 15.4153 14.2045 18.0744 14.2045ZM18.0744 12.8494C16.0545 12.8494 15.1341 11.1108 15.1341 9.14205C15.1341 7.1733 16.0545 5.40909 18.0744 5.40909C20.0943 5.40909 21.0147 7.1733 21.0147 9.14205C21.0147 11.1108 20.0943 12.8494 18.0744 12.8494ZM25.5467 4.18182H23.8081L26.9274 9.09091L23.8081 14H25.5467L27.899 10.1903L30.2512 14H31.9899L28.8194 9.09091L31.9899 4.18182H30.2512L27.899 8.19602L25.5467 4.18182ZM34.1424 17.6818H35.6509V12.4915H35.7788C36.1112 13.0284 36.7504 14.2045 38.6424 14.2045C41.0969 14.2045 42.81 12.2358 42.81 9.11648C42.81 6.02273 41.0969 4.05398 38.6168 4.05398C36.6992 4.05398 36.1112 5.23011 35.7788 5.74148H35.5998V4.18182H34.1424V17.6818ZM35.6254 9.09091C35.6254 6.89205 36.5969 5.40909 38.4379 5.40909C40.3555 5.40909 41.3015 7.01989 41.3015 9.09091C41.3015 11.1875 40.3299 12.8494 38.4379 12.8494C36.6225 12.8494 35.6254 11.3153 35.6254 9.09091ZM48.0004 14.2301C49.7134 14.2301 50.6083 13.3097 50.9151 12.6705H50.9918V14H52.5004V7.53125C52.5004 4.41193 50.1225 4.05398 48.8697 4.05398C47.3867 4.05398 45.6992 4.56534 44.9322 6.35511L46.364 6.86648C46.6964 6.15057 47.4826 5.38352 48.9208 5.38352C50.3079 5.38352 50.9918 6.11861 50.9918 7.37784V7.42898C50.9918 8.15767 50.2504 8.09375 48.4606 8.32386C46.6388 8.56037 44.6509 8.96307 44.6509 11.2131C44.6509 13.1307 46.1339 14.2301 48.0004 14.2301ZM48.2305 12.875C47.0288 12.875 46.1594 12.3381 46.1594 11.2898C46.1594 10.1392 47.2077 9.78125 48.3839 9.62784C49.0231 9.55114 50.7362 9.37216 50.9918 9.06534V10.446C50.9918 11.6733 50.0202 12.875 48.2305 12.875ZM56.7623 4.18182H55.2537V14H56.7623V9.80682H61.4668V14H62.9753V4.18182H61.4668V8.40057H56.7623V4.18182ZM69.8468 14.2045C71.8411 14.2045 73.2985 13.2074 73.7587 11.7244L72.3013 11.3153C71.9178 12.3381 71.0293 12.8494 69.8468 12.8494C68.0762 12.8494 66.8553 11.7053 66.785 9.60227H73.9121V8.96307C73.9121 5.30682 71.7388 4.05398 69.6934 4.05398C67.0343 4.05398 65.2701 6.15057 65.2701 9.16761C65.2701 12.1847 67.0087 14.2045 69.8468 14.2045ZM66.785 8.2983C66.8873 6.7706 67.9675 5.40909 69.6934 5.40909C71.3297 5.40909 72.378 6.63636 72.378 8.2983H66.785ZM77.7154 4.18182H76.2069V14H77.7154V9.80682H82.4199V14H83.9284V4.18182H82.4199V8.40057H77.7154V4.18182ZM88.1919 11.7756V4.18182H86.6834V14H88.4476L93.1522 6.40625V14H94.6607V4.18182H92.9221L88.1919 11.7756ZM101.54 14.2045C103.534 14.2045 104.992 13.2074 105.452 11.7244L103.995 11.3153C103.611 12.3381 102.723 12.8494 101.54 12.8494C99.7695 12.8494 98.5487 11.7053 98.4783 9.60227H105.605V8.96307C105.605 5.30682 103.432 4.05398 101.387 4.05398C98.7276 4.05398 96.9634 6.15057 96.9634 9.16761C96.9634 12.1847 98.7021 14.2045 101.54 14.2045ZM98.4783 8.2983C98.5806 6.7706 99.6609 5.40909 101.387 5.40909C103.023 5.40909 104.071 6.63636 104.071 8.2983H98.4783ZM109 14.1023C109.632 14.1023 110.15 13.5845 110.15 12.9517C110.15 12.3189 109.632 11.8011 109 11.8011C108.367 11.8011 107.849 12.3189 107.849 12.9517C107.849 13.5845 108.367 14.1023 109 14.1023ZM113.957 14.1023C114.589 14.1023 115.107 13.5845 115.107 12.9517C115.107 12.3189 114.589 11.8011 113.957 11.8011C113.324 11.8011 112.806 12.3189 112.806 12.9517C112.806 13.5845 113.324 14.1023 113.957 14.1023ZM118.914 14.1023C119.547 14.1023 120.064 13.5845 120.064 12.9517C120.064 12.3189 119.547 11.8011 118.914 11.8011C118.281 11.8011 117.763 12.3189 117.763 12.9517C117.763 13.5845 118.281 14.1023 118.914 14.1023Z" fill="white"/>
</svg>
